<svg width="852" height="272" viewBox="0 0 852 272" fill="none" xmlns="http://www.w3.org/2000/svg">
<path d="M428.765 92.2626C428.163 99.9968 426.186 106.786 422.835 112.629C419.569 118.473 414.972 123.027 409.042 126.293C403.199 129.473 396.023 131.062 387.515 131.062C377.977 131.062 369.856 128.957 363.153 124.746C356.536 120.449 351.509 114.735 348.071 107.602C344.634 100.469 342.915 92.5204 342.915 83.755C342.915 77.3098 343.86 71.2514 345.751 65.5796C347.727 59.8219 350.606 54.7947 354.387 50.4979C358.169 46.2012 362.809 42.8497 368.309 40.4435C373.895 37.9513 380.297 36.7053 387.515 36.7053C399.632 36.7053 409.085 39.9279 415.874 46.373C422.749 52.7323 426.874 61.3258 428.249 72.1537H410.847C410.417 69.2319 409.644 66.5679 408.527 64.1617C407.495 61.6695 406.035 59.5212 404.144 57.7165C402.339 55.8259 400.062 54.365 397.312 53.3338C394.648 52.3026 391.383 51.787 387.515 51.787C381.242 51.787 376.043 53.3338 371.918 56.4275C367.879 59.4352 364.871 63.3883 362.895 68.2866C361.004 73.099 360.059 78.2551 360.059 83.755C360.059 89.3408 361.004 94.5828 362.895 99.4812C364.871 104.379 367.879 108.375 371.918 111.469C376.043 114.477 381.242 115.981 387.515 115.981C391.726 115.981 395.25 115.379 398.086 114.176C401.007 112.887 403.414 111.168 405.304 109.02C407.281 106.872 408.742 104.379 409.687 101.544C410.718 98.7077 411.363 95.6141 411.62 92.2626H428.765ZM470.095 131.062C462.705 131.062 456.217 129.473 450.631 126.293C445.131 123.027 440.834 118.516 437.74 112.758C434.733 107.001 433.229 100.426 433.229 93.036C433.229 85.5596 434.733 78.9426 437.74 73.1849C440.834 67.4272 445.131 62.9156 450.631 59.6501C456.217 56.3845 462.748 54.7517 470.224 54.7517C477.614 54.7517 484.06 56.3845 489.559 59.6501C495.059 62.9156 499.313 67.4272 502.321 73.1849C505.415 78.9426 506.961 85.5596 506.961 93.036C506.961 100.426 505.415 107.001 502.321 112.758C499.313 118.516 495.059 123.027 489.559 126.293C484.06 129.473 477.571 131.062 470.095 131.062ZM470.224 116.496C474.607 116.496 478.302 115.508 481.31 113.532C484.317 111.469 486.595 108.676 488.142 105.153C489.688 101.544 490.462 97.5046 490.462 93.036C490.462 88.4814 489.688 84.3995 488.142 80.7902C486.595 77.1809 484.317 74.388 481.31 72.4115C478.302 70.349 474.607 69.3178 470.224 69.3178C465.755 69.3178 462.017 70.349 459.009 72.4115C456.002 74.388 453.724 77.1809 452.178 80.7902C450.631 84.3995 449.857 88.4814 449.857 93.036C449.857 97.5046 450.631 101.544 452.178 105.153C453.724 108.676 456.002 111.469 459.009 113.532C462.017 115.508 465.755 116.496 470.224 116.496ZM513.796 56.8142H530.038V68.2866C530.983 65.8804 532.401 63.689 534.292 61.7125C536.268 59.6501 538.804 57.9743 541.897 56.6853C544.991 55.3963 548.815 54.7517 553.37 54.7517C558.01 54.7517 562.135 55.697 565.744 57.5876C569.354 59.4782 572.189 62.6148 574.252 66.9975C576.4 71.2943 577.475 77.1379 577.475 84.5284V129H561.233V86.2041C561.233 82.8526 560.932 79.8879 560.33 77.3098C559.729 74.6458 558.526 72.5834 556.721 71.1224C555.002 69.5756 552.424 68.8022 548.987 68.8022C545.979 68.8022 543.014 69.6615 540.093 71.3803C537.171 73.099 534.765 75.763 532.874 79.3723C530.983 82.9815 530.038 87.665 530.038 93.4227V129H513.796V56.8142ZM586.747 56.8142H602.989V68.2866C603.935 65.8804 605.353 63.689 607.243 61.7125C609.22 59.6501 611.755 57.9743 614.848 56.6853C617.942 55.3963 621.766 54.7517 626.321 54.7517C630.961 54.7517 635.086 55.697 638.695 57.5876C642.305 59.4782 645.141 62.6148 647.203 66.9975C649.351 71.2943 650.426 77.1379 650.426 84.5284V129H634.184V86.2041C634.184 82.8526 633.883 79.8879 633.282 77.3098C632.68 74.6458 631.477 72.5834 629.672 71.1224C627.954 69.5756 625.375 68.8022 621.938 68.8022C618.93 68.8022 615.966 69.6615 613.044 71.3803C610.122 73.099 607.716 75.763 605.825 79.3723C603.935 82.9815 602.989 87.665 602.989 93.4227V129H586.747V56.8142ZM674.136 98.321V85.044H716.545L710.744 88.7822C711.088 85.5166 710.658 82.423 709.455 79.5012C708.338 76.4934 706.491 74.0443 703.912 72.1537C701.334 70.2631 697.983 69.3178 693.858 69.3178C688.272 69.3178 683.589 71.0795 679.808 74.6028C676.026 78.1262 674.136 83.1964 674.136 89.8134H656.992C657.507 82.337 659.441 76.0208 662.792 70.8646C666.23 65.6226 670.612 61.6266 675.94 58.8766C681.354 56.1267 687.327 54.7517 693.858 54.7517C698.756 54.7517 703.354 55.74 707.651 57.7165C712.033 59.6071 715.772 62.443 718.865 66.2241C722.045 69.9193 724.365 74.4739 725.826 79.8879C727.373 85.3018 727.674 91.4462 726.728 98.321H674.136ZM693.858 131.062C687.069 131.062 681.054 129.687 675.812 126.938C670.569 124.188 666.359 120.363 663.179 115.465C659.999 110.567 658.023 104.852 657.249 98.321H674.136C674.823 103.649 676.757 108.032 679.936 111.469C683.116 114.821 687.757 116.496 693.858 116.496C698.155 116.496 701.592 115.508 704.17 113.532C706.834 111.469 708.725 108.977 709.842 106.055H726.857C725.826 111.039 723.807 115.422 720.799 119.203C717.791 122.899 714.01 125.82 709.455 127.969C704.901 130.031 699.702 131.062 693.858 131.062ZM802.095 98.7077C802.009 104.895 800.549 110.438 797.713 115.336C794.877 120.235 790.924 124.102 785.854 126.938C780.869 129.687 774.983 131.062 768.194 131.062C760.803 131.062 754.315 129.473 748.729 126.293C743.23 123.027 738.933 118.516 735.839 112.758C732.831 107.001 731.328 100.426 731.328 93.036C731.328 85.5596 732.831 78.9426 735.839 73.1849C738.933 67.4272 743.23 62.9156 748.729 59.6501C754.315 56.3845 760.803 54.7517 768.194 54.7517C774.725 54.7517 780.483 56.2126 785.467 59.1344C790.537 61.9703 794.49 65.7085 797.326 70.349C800.248 74.9036 801.752 79.8449 801.838 85.1729H784.822C784.736 82.5089 784.092 80.0168 782.889 77.6965C781.772 75.2903 780.01 73.3568 777.604 71.8959C775.198 70.349 772.061 69.5756 768.194 69.5756C763.553 69.5756 759.729 70.6068 756.721 72.6693C753.714 74.6458 751.479 77.4387 750.019 81.048C748.644 84.5714 747.956 88.5674 747.956 93.036C747.956 97.4187 748.644 101.372 750.019 104.895C751.479 108.418 753.714 111.211 756.721 113.274C759.729 115.25 763.553 116.239 768.194 116.239C772.147 116.239 775.369 115.422 777.862 113.789C780.354 112.157 782.201 110.008 783.404 107.344C784.608 104.68 785.252 101.801 785.338 98.7077H802.095ZM814.183 129V38.7677H830.425V115.207H846.667V129H814.183ZM804.644 70.6068V56.8142H844.604V70.6068H804.644Z" fill="#007AFF"/>
<path d="M386.493 234.321C380.443 234.321 374.629 233.517 369.052 231.91C363.569 230.303 358.654 227.845 354.306 224.537C350.052 221.134 346.649 216.833 344.096 211.634C341.639 206.34 340.41 200.054 340.41 192.775C340.41 185.78 341.686 179.73 344.238 174.625C346.791 169.521 350.241 165.314 354.589 162.006C359.032 158.697 363.995 156.287 369.478 154.774C375.055 153.167 380.821 152.364 386.776 152.364C393.015 152.364 398.12 153.215 402.09 154.916C406.155 156.523 409.132 158.792 411.023 161.722C413.008 164.558 414.001 167.819 414.001 171.506C414.001 175.571 413.103 178.974 411.307 181.715C409.511 184.456 407.1 186.536 404.075 187.954C401.145 189.372 397.978 190.081 394.575 190.081C389.565 190.081 385.547 189.23 382.523 187.529C379.498 185.733 377.323 183.417 376 180.581C374.771 177.65 374.157 174.578 374.157 171.364C374.157 169.474 374.393 167.725 374.866 166.118C375.433 164.511 376 163.14 376.567 162.006L389.754 159.312C387.958 160.635 386.587 162.384 385.642 164.558C384.697 166.732 384.224 168.906 384.224 171.081C384.224 173.16 384.933 175.334 386.351 177.603C387.863 179.777 390.416 180.864 394.008 180.864C397.127 180.864 399.396 179.966 400.814 178.17C402.232 176.28 402.941 174.153 402.941 171.79C402.941 168.198 401.617 165.551 398.971 163.849C396.418 162.148 393.441 161.297 390.038 161.297C388.714 161.297 387.438 161.297 386.209 161.297C384.98 161.297 383.704 161.391 382.381 161.58C376.236 162.053 370.943 163.613 366.5 166.26C362.152 168.906 358.796 172.499 356.433 177.036C354.164 181.479 353.029 186.772 353.029 192.917C353.029 198.872 354.211 204.213 356.574 208.94C358.938 213.666 362.293 217.447 366.642 220.283C370.99 223.024 376.095 224.584 381.955 224.962C383.09 225.057 384.224 225.151 385.358 225.246C386.587 225.34 387.722 225.388 388.761 225.388C391.219 225.388 393.441 225.009 395.426 224.253C397.505 223.497 399.16 222.315 400.389 220.708C401.617 219.101 402.232 217.069 402.232 214.611C402.232 212.248 401.523 210.168 400.105 208.372C398.687 206.576 396.371 205.678 393.157 205.678C389.565 205.678 387.013 206.765 385.5 208.94C384.082 211.114 383.373 213.288 383.373 215.462C383.373 217.731 383.846 219.905 384.791 221.985C385.737 224.064 387.107 225.766 388.903 227.089L375.858 224.395C375.197 223.355 374.582 222.032 374.015 220.425C373.542 218.723 373.306 216.833 373.306 214.753C373.306 211.539 373.968 208.561 375.291 205.82C376.614 203.079 378.741 200.857 381.672 199.156C384.602 197.36 388.478 196.462 393.299 196.462C396.891 196.462 400.199 197.171 403.224 198.589C406.249 199.912 408.66 201.944 410.456 204.686C412.346 207.427 413.292 210.83 413.292 214.895C413.292 218.581 412.299 221.89 410.314 224.82C408.423 227.751 405.493 230.067 401.523 231.768C397.553 233.47 392.543 234.321 386.493 234.321ZM452.672 234.321C444.164 234.321 437.689 232.241 433.246 228.082C428.803 223.922 426.582 218.251 426.582 211.066C426.582 206.624 427.574 202.795 429.559 199.581C431.544 196.273 434.191 193.673 437.5 191.783C439.768 190.459 442.273 189.372 445.015 188.521C447.851 187.67 451.206 187.056 455.082 186.678C459.052 186.3 463.779 186.111 469.261 186.111H523.568C531.698 186.111 538.173 186.583 542.994 187.529C547.91 188.474 552.116 190.176 555.614 192.633C558.355 194.524 560.529 196.982 562.136 200.007C563.838 202.937 564.688 206.624 564.688 211.066C564.688 218.251 562.562 223.922 558.308 228.082C554.054 232.241 547.957 234.321 540.016 234.321C537.653 234.321 535.195 234.226 532.643 234.037C530.185 233.753 527.869 233.281 525.695 232.619L528.389 223.119C529.713 223.497 531.272 223.828 533.068 224.111C534.959 224.3 536.661 224.395 538.173 224.395C542.994 224.395 546.586 223.308 548.949 221.134C551.313 218.865 552.494 215.557 552.494 211.208C552.494 208.467 551.974 206.245 550.934 204.544C549.895 202.748 548.524 201.283 546.822 200.148C544.176 198.447 540.914 197.36 537.039 196.887C533.258 196.32 528.389 196.036 522.434 196.036H468.978C462.266 196.036 457.114 196.32 453.522 196.887C450.025 197.36 446.953 198.447 444.306 200.148C442.604 201.188 441.234 202.606 440.194 204.402C439.248 206.198 438.776 208.325 438.776 210.783C438.776 213.902 439.343 216.502 440.477 218.581C441.706 220.567 443.408 222.032 445.582 222.977C447.756 223.922 450.261 224.395 453.097 224.395C456.122 224.395 459.147 223.922 462.172 222.977C465.291 221.937 468.552 220.141 471.955 217.589L479.045 225.246C476.209 227.325 473.421 229.027 470.679 230.35C467.938 231.674 465.102 232.666 462.172 233.328C459.336 233.99 456.169 234.321 452.672 234.321ZM496.202 152.364C503.764 152.364 509.956 154.16 514.777 157.752C519.693 161.25 523.332 166.071 525.695 172.215C528.058 178.265 529.24 185.213 529.24 193.059C529.24 201.944 527.917 209.459 525.27 215.604C522.623 221.748 518.842 226.427 513.926 229.641C509.011 232.761 503.15 234.321 496.344 234.321C491.239 234.321 486.607 233.47 482.448 231.768C478.383 229.972 474.886 227.325 471.955 223.828C469.025 220.33 466.756 216.029 465.149 210.925C463.637 205.726 462.881 199.77 462.881 193.059C462.881 180.392 465.858 170.466 471.814 163.282C477.769 156.003 485.899 152.364 496.202 152.364ZM496.202 162.289C489.018 162.289 483.677 164.842 480.18 169.946C476.776 175.051 475.075 182.802 475.075 193.2C475.075 200.196 475.831 206.009 477.344 210.641C478.951 215.273 481.314 218.723 484.433 220.992C487.553 223.261 491.381 224.395 495.919 224.395C500.551 224.395 504.426 223.308 507.546 221.134C510.665 218.865 513.028 215.415 514.635 210.783C516.242 206.151 517.046 200.29 517.046 193.2C517.046 186.111 516.242 180.297 514.635 175.76C513.123 171.128 510.807 167.725 507.687 165.551C504.568 163.377 500.74 162.289 496.202 162.289ZM623.687 152.364C631.533 152.364 638.386 153.498 644.247 155.767C650.202 158.036 655.118 161.25 658.993 165.409C662.964 169.568 665.941 174.436 667.926 180.014C669.911 185.591 670.904 191.688 670.904 198.305C670.904 206.718 669.581 213.619 666.934 219.007C664.287 224.3 660.695 228.176 656.157 230.634C651.62 233.092 646.516 234.321 640.844 234.321C634.699 234.321 629.595 232.95 625.53 230.209C621.465 227.467 618.393 223.875 616.314 219.432C614.328 214.895 613.336 210.027 613.336 204.828C613.336 195.847 615.746 188.71 620.567 183.417C625.388 178.029 631.864 175.334 639.993 175.334C645.287 175.334 649.871 176.705 653.747 179.446C657.717 182.188 660.837 185.685 663.105 189.939C665.374 194.193 666.603 198.683 666.792 203.41L663.247 202.984C662.585 200.054 661.309 197.265 659.419 194.618C657.623 191.877 655.259 189.656 652.329 187.954C649.493 186.158 646.185 185.26 642.404 185.26C636.448 185.26 632.1 187.056 629.359 190.648C626.617 194.146 625.246 198.778 625.246 204.544C625.246 208.514 625.766 212.012 626.806 215.037C627.846 217.967 629.5 220.283 631.769 221.985C634.132 223.592 637.157 224.395 640.844 224.395C644.719 224.395 647.981 223.497 650.628 221.701C653.369 219.905 655.449 217.022 656.866 213.052C658.379 209.081 659.135 203.882 659.135 197.454C659.135 197.265 659.041 196.225 658.852 194.335C658.757 192.444 658.521 190.554 658.143 188.663C658.048 188.19 658.001 187.576 658.001 186.82C658.001 186.063 657.906 185.496 657.717 185.118C656.866 181.053 655.023 177.32 652.187 173.917C649.351 170.513 645.57 167.772 640.844 165.692C636.117 163.613 630.398 162.573 623.687 162.573C616.881 162.573 610.973 163.802 605.963 166.26C600.953 168.717 597.077 172.262 594.336 176.894C591.594 181.526 590.223 187.198 590.223 193.909C590.223 198.825 590.932 203.221 592.35 207.096C593.768 210.972 595.753 214.375 598.306 217.305C600.953 220.236 604.025 222.788 607.522 224.962L600.433 233.895C596.368 231.532 592.587 228.507 589.089 224.82C585.686 221.039 582.897 216.549 580.723 211.35C578.644 206.056 577.604 200.054 577.604 193.342C577.604 188.049 578.502 182.944 580.298 178.029C582.094 173.113 584.835 168.717 588.522 164.842C592.303 160.966 597.077 157.941 602.843 155.767C608.704 153.498 615.652 152.364 623.687 152.364ZM735.75 162.289C730.267 162.289 725.352 162.762 721.004 163.707C716.655 164.653 712.827 165.976 709.518 167.678C706.304 169.379 703.61 171.317 701.436 173.491C699.262 175.571 697.655 177.839 696.615 180.297C696.521 180.675 696.521 181.148 696.615 181.715C696.804 182.188 696.851 182.566 696.757 182.85C696.473 183.889 696.237 184.882 696.048 185.827C695.953 186.772 695.906 187.623 695.906 188.379C695.906 194.24 696.946 198.778 699.026 201.992C701.2 205.111 704.508 206.671 708.951 206.671C713.205 206.671 716.277 205.442 718.168 202.984C720.153 200.526 721.145 197.643 721.145 194.335C721.145 192.255 720.767 190.365 720.011 188.663C719.255 186.962 718.026 185.591 716.324 184.551C714.623 183.511 712.402 182.991 709.66 182.991C705.312 182.991 701.72 184.22 698.884 186.678C696.143 189.136 693.827 191.641 691.936 194.193L688.675 185.969C690.187 184.078 692.031 182.188 694.205 180.297C696.473 178.407 699.073 176.847 702.003 175.618C704.934 174.295 708.195 173.633 711.787 173.633C716.703 173.633 720.72 174.625 723.84 176.611C726.959 178.501 729.228 181.006 730.646 184.126C732.158 187.245 732.914 190.648 732.914 194.335C732.914 198.116 732.064 201.708 730.362 205.111C728.661 208.42 726.061 211.114 722.563 213.193C719.066 215.273 714.576 216.313 709.093 216.313C704.272 216.313 700.018 215.226 696.332 213.052C692.739 210.877 689.951 207.711 687.966 203.551C685.981 199.298 684.988 194.193 684.988 188.238C684.988 183.133 686.075 178.407 688.249 174.058C690.518 169.615 693.827 165.787 698.175 162.573C702.523 159.359 707.864 156.854 714.198 155.058C720.531 153.262 727.762 152.364 735.892 152.364C744.872 152.364 752.198 153.262 757.87 155.058C763.636 156.759 767.89 159.359 770.631 162.857C773.373 166.26 774.743 170.513 774.743 175.618C774.743 178.832 774.082 181.762 772.758 184.409C771.529 186.962 769.544 189.183 766.803 191.074C764.062 192.87 760.47 194.288 756.027 195.327L742.698 193.059V188.663H743.691C746.999 188.663 749.788 188.474 752.056 188.096C754.325 187.718 756.263 186.914 757.87 185.685C759.571 184.362 760.753 182.991 761.415 181.573C762.077 180.155 762.407 178.454 762.407 176.469C762.407 173.538 761.509 171.033 759.713 168.954C758.012 166.874 755.223 165.267 751.347 164.133C747.472 162.904 742.273 162.289 735.75 162.289ZM776.445 212.201C776.445 215.131 775.878 217.873 774.743 220.425C773.704 222.883 772.191 224.962 770.206 226.664C768.694 227.987 766.945 229.121 764.96 230.067C762.975 230.918 760.517 231.579 757.586 232.052C754.656 232.43 750.922 232.619 746.385 232.619H716.324C712.449 232.619 709.518 232.761 707.533 233.044C705.548 233.328 703.988 233.801 702.854 234.462C701.342 235.124 700.255 236.069 699.593 237.298C698.931 238.527 698.6 239.898 698.6 241.41C698.6 242.828 698.837 244.104 699.309 245.239C699.782 246.468 700.633 247.46 701.862 248.216C703.09 249.067 704.745 249.729 706.824 250.201C708.998 250.674 712.071 250.91 716.041 250.91H773.893V261.12H715.474C710.558 261.12 706.399 260.741 702.996 259.985C699.593 259.229 696.71 258.142 694.346 256.724C691.7 255.117 689.715 253.085 688.391 250.627C687.068 248.169 686.406 245.38 686.406 242.261C686.406 238.952 686.973 236.022 688.108 233.47C689.336 230.823 691.274 228.649 693.921 226.947C695.244 226.002 696.757 225.246 698.458 224.679C700.16 224.017 702.192 223.544 704.556 223.261C706.919 222.883 709.755 222.693 713.063 222.693H745.25C749.126 222.693 752.293 222.457 754.751 221.985C757.303 221.512 759.288 220.661 760.706 219.432C761.84 218.487 762.691 217.353 763.258 216.029C763.825 214.611 764.109 212.862 764.109 210.783C764.109 208.892 763.731 207.191 762.975 205.678C762.218 204.166 761.037 202.842 759.43 201.708C758.012 200.763 756.216 200.007 754.042 199.439C751.962 198.872 749.079 198.589 745.392 198.589H742.698V191.074L757.586 192.208C764.109 193.437 768.883 195.847 771.908 199.439C774.932 203.031 776.445 207.285 776.445 212.201ZM816.804 234.321C811.132 234.321 806.217 233.186 802.058 230.918C797.993 228.649 794.826 225.529 792.557 221.559C790.383 217.494 789.296 212.862 789.296 207.663C789.296 202.37 790.43 197.738 792.699 193.768C795.062 189.797 798.324 186.725 802.483 184.551C806.642 182.282 811.416 181.148 816.804 181.148C822.287 181.148 827.06 182.235 831.125 184.409C835.284 186.583 838.546 189.656 840.909 193.626C843.272 197.502 844.454 202.181 844.454 207.663C844.454 213.052 843.272 217.731 840.909 221.701C838.546 225.671 835.284 228.791 831.125 231.059C827.06 233.233 822.287 234.321 816.804 234.321ZM816.804 190.79C812.361 190.79 808.627 192.208 805.602 195.044C802.672 197.785 801.207 202.039 801.207 207.805C801.207 213.477 802.719 217.731 805.744 220.567C808.769 223.308 812.456 224.679 816.804 224.679C821.247 224.679 824.981 223.308 828.006 220.567C831.031 217.731 832.543 213.43 832.543 207.663C832.543 201.992 831.031 197.785 828.006 195.044C825.075 192.208 821.341 190.79 816.804 190.79Z" fill="white"/>
<g clip-path="url(#clip0_99_11)">
<path d="M178.158 113.972C194.53 157.274 210.807 200.275 227.023 243.118C225.094 244.498 223.555 244.164 222.099 244.168C212.057 244.199 202.009 243.982 191.977 244.287C187.972 244.409 186.273 242.862 184.954 239.298C175.289 213.182 165.461 187.127 155.649 161.065C145.98 135.384 136.273 109.716 126.572 84.0468C125.948 82.3966 125.295 80.7524 124.553 79.1535C122.768 75.3119 119.777 73.3971 115.491 73.5209C111.151 73.6463 107.863 75.428 106.205 79.5517C102.049 89.886 97.9577 100.247 93.8828 110.614C76.8876 153.851 59.8835 197.084 42.9777 240.356C41.8673 243.198 40.3956 244.304 37.3197 244.254C26.8735 244.084 16.4229 244.2 5.974 244.171C4.66894 244.167 3.24425 244.482 2.1305 243.32C1.66826 241.726 2.59148 240.434 3.12384 239.084C23.6009 187.14 44.0962 135.204 64.5779 83.2617C67.0692 76.9435 69.7306 70.68 71.9126 64.2546C78.4093 45.1234 92.5135 36.8331 111.769 35.7644C119.96 35.3097 127.985 36.2572 135.819 38.8695C145.245 42.0125 152.069 48.0699 156.129 57.0689C162.838 71.9377 167.873 87.4705 173.814 102.646C175.25 106.313 176.647 109.996 178.158 113.972Z" fill="url(#paint0_linear_99_11)"/>
<path d="M287.289 72.5184C287.286 128.148 287.286 183.369 287.279 238.59C287.278 244.171 287.261 244.18 281.712 244.183C272.89 244.186 264.065 244.062 255.246 244.23C251.831 244.295 250.862 243.006 250.866 239.699C250.93 173.189 250.922 106.679 250.838 40.1687C250.834 36.7736 251.985 35.6245 255.321 35.6787C264.277 35.8245 273.24 35.8604 282.193 35.6375C286.013 35.5424 287.471 36.6669 287.378 40.6934C287.135 51.1607 287.291 61.6373 287.289 72.5184Z" fill="url(#paint1_linear_99_11)"/>
<path d="M127.129 191.523L138.578 187.006C138.813 186.912 139.015 186.75 139.158 186.54C139.3 186.331 139.377 186.083 139.377 185.829C139.377 185.575 139.3 185.327 139.158 185.117C139.015 184.908 138.813 184.746 138.578 184.652L127.129 180.135C125.103 179.333 123.262 178.123 121.721 176.58C120.18 175.037 118.971 173.194 118.17 171.165L113.659 159.778C113.565 159.542 113.403 159.34 113.194 159.198C112.984 159.056 112.737 158.98 112.484 158.98C112.231 158.98 111.984 159.056 111.774 159.198C111.564 159.34 111.402 159.542 111.309 159.778L106.798 171.165C105.998 173.195 104.791 175.039 103.249 176.582C101.708 178.126 99.8664 179.335 97.8387 180.135L86.4662 184.652C86.2305 184.746 86.0282 184.908 85.8857 185.117C85.7432 185.327 85.667 185.575 85.667 185.829C85.667 186.083 85.7432 186.331 85.8857 186.54C86.0282 186.75 86.2305 186.912 86.4662 187.006L97.8387 191.523C99.8664 192.323 101.708 193.532 103.249 195.076C104.791 196.619 105.998 198.463 106.798 200.493L111.309 211.88C111.4 212.118 111.562 212.323 111.771 212.467C111.981 212.612 112.229 212.689 112.484 212.69C112.738 212.689 112.987 212.612 113.197 212.467C113.406 212.323 113.567 212.118 113.659 211.88L118.17 200.493C118.971 198.464 120.18 196.621 121.721 195.078C123.262 193.535 125.103 192.325 127.129 191.523Z" fill="url(#paint2_linear_99_11)"/>
</g>
<defs>
<linearGradient id="paint0_linear_99_11" x1="83.0021" y1="18.1784" x2="282.41" y2="36.3984" gradientUnits="userSpaceOnUse">
<stop stop-color="#007AFF"/>
<stop offset="1" stop-color="#E9499F"/>
</linearGradient>
<linearGradient id="paint1_linear_99_11" x1="269.11" y1="35.6321" x2="269.11" y2="244.232" gradientUnits="userSpaceOnUse">
<stop stop-color="#3C80F4"/>
<stop offset="1" stop-color="#E9499F"/>
</linearGradient>
<linearGradient id="paint2_linear_99_11" x1="96.4089" y1="158.98" x2="139.943" y2="200.277" gradientUnits="userSpaceOnUse">
<stop stop-color="#3C80F4"/>
<stop offset="1" stop-color="#FF56B1"/>
</linearGradient>
<clipPath id="clip0_99_11">
<rect width="289.495" height="210.542" fill="white" transform="translate(0 34.3741)"/>
</clipPath>
</defs>
</svg>
