<svg width="178" height="130" viewBox="0 0 178 130" fill="none" xmlns="http://www.w3.org/2000/svg">
<path d="M109.545 49.1468C119.611 75.8837 129.619 102.435 139.59 128.888C138.404 129.741 137.458 129.534 136.562 129.537C130.388 129.556 124.21 129.422 118.041 129.611C115.579 129.686 114.534 128.731 113.723 126.53C107.78 110.404 101.737 94.3164 95.7044 78.2248C89.7593 62.3675 83.7908 46.5191 77.8262 30.6693C77.4427 29.6504 77.041 28.6352 76.5845 27.648C75.4875 25.2759 73.6482 24.0936 71.013 24.1701C68.3445 24.2475 66.3228 25.3476 65.3031 27.8938C62.7477 34.2748 60.2323 40.6722 57.7268 47.0732C47.277 73.77 36.8218 100.465 26.427 127.183C25.7443 128.938 24.8394 129.621 22.9482 129.59C16.5252 129.485 10.0995 129.556 3.67484 129.539C2.87241 129.536 1.99642 129.731 1.31161 129.013C1.0274 128.029 1.59505 127.231 1.92238 126.398C14.513 94.3247 27.1148 62.2563 39.7082 30.1845C41.2401 26.2834 42.8764 22.4159 44.2181 18.4485C48.2127 6.6359 56.8848 1.51701 68.7243 0.857144C73.7607 0.576422 78.6952 1.16144 83.5119 2.7744C89.3074 4.71509 93.5034 8.45526 95.9999 14.0117C100.125 23.1925 103.221 32.7833 106.874 42.1533C107.756 44.4178 108.615 46.6917 109.545 49.1468Z" fill="url(#paint0_linear_67_4024)"/>
<path d="M176.643 23.5522C176.641 57.9007 176.641 91.9971 176.637 126.094C176.636 129.54 176.626 129.546 173.214 129.547C167.789 129.549 162.363 129.472 156.941 129.576C154.841 129.616 154.246 128.821 154.248 126.778C154.287 85.7115 154.282 44.6446 154.23 3.57779C154.228 1.48144 154.936 0.771912 156.987 0.805426C162.494 0.895401 168.005 0.917594 173.509 0.779986C175.858 0.721264 176.755 1.41559 176.698 3.90172C176.548 10.3648 176.644 16.8337 176.643 23.5522Z" fill="url(#paint1_linear_67_4024)"/>
<path d="M78.1713 97.03L85.2105 94.241C85.3554 94.1835 85.4797 94.0834 85.5674 93.9538C85.655 93.8242 85.7019 93.6712 85.7019 93.5145C85.7019 93.3578 85.655 93.2047 85.5674 93.0752C85.4797 92.9456 85.3554 92.8455 85.2105 92.788L78.1713 89.999C76.9252 89.5036 75.7935 88.7564 74.846 87.8037C73.8985 86.851 73.1554 85.713 72.6628 84.46L69.889 77.4289C69.8315 77.2836 69.7318 77.159 69.603 77.0712C69.4742 76.9835 69.3221 76.9366 69.1665 76.9368C69.0109 76.9366 68.8588 76.9835 68.73 77.0712C68.6012 77.159 68.5015 77.2836 68.4439 77.4289L65.6702 84.46C65.1787 85.7137 64.4361 86.8523 63.4885 87.8052C62.5408 88.758 61.4084 89.5048 60.1617 89.999L53.1691 92.788C53.0242 92.8455 52.8998 92.9456 52.8122 93.0752C52.7246 93.2047 52.6777 93.3578 52.6777 93.5145C52.6777 93.6712 52.7246 93.8242 52.8122 93.9538C52.8998 94.0834 53.0242 94.1835 53.1691 94.241L60.1617 97.03C61.4084 97.5242 62.5408 98.271 63.4885 99.2238C64.4361 100.177 65.1787 101.315 65.6702 102.569L68.4439 109.6C68.5003 109.747 68.5994 109.873 68.7283 109.962C68.8573 110.052 69.01 110.1 69.1665 110.1C69.323 110.1 69.4757 110.052 69.6046 109.962C69.7336 109.873 69.8327 109.747 69.889 109.6L72.6628 102.569C73.1554 101.316 73.8985 100.178 74.846 99.2253C75.7935 98.2726 76.9252 97.5254 78.1713 97.03Z" fill="url(#paint2_linear_67_4024)"/>
<defs>
<linearGradient id="paint0_linear_67_4024" x1="51.0366" y1="-10.0014" x2="173.653" y2="1.15518" gradientUnits="userSpaceOnUse">
<stop stop-color="#007AFF"/>
<stop offset="1" stop-color="#E9499F"/>
</linearGradient>
<linearGradient id="paint1_linear_67_4024" x1="165.465" y1="0.776611" x2="165.465" y2="129.578" gradientUnits="userSpaceOnUse">
<stop stop-color="#3C80F4"/>
<stop offset="1" stop-color="#E9499F"/>
</linearGradient>
<linearGradient id="paint2_linear_67_4024" x1="59.2826" y1="76.9368" x2="86.1565" y2="102.323" gradientUnits="userSpaceOnUse">
<stop stop-color="#3C80F4"/>
<stop offset="1" stop-color="#FF56B1"/>
</linearGradient>
</defs>
</svg>
